<svg width="1012" height="224" viewBox="0 0 1012 224" fill="none" xmlns="http://www.w3.org/2000/svg">
<g clip-path="url(#clip0_446_79)">
<rect x="0.75" y="0.25" width="1010.5" height="223.5" rx="15" fill="white"/>
<path d="M102.216 57.1123H102.31L102.336 57.0216C105.078 47.4345 112.427 40.2918 122.155 35.5437C131.884 30.7953 143.984 28.4473 156.203 28.4473C172.949 28.4473 187.989 33.7058 198.361 42.0637C192.251 42.3838 186.22 43.5985 180.461 45.6696L180.139 45.7853L180.46 45.9044C188.724 48.9762 195.838 53.6758 201.15 59.4837C197.22 58.8298 193.238 58.5397 189.253 58.6173L189.021 58.6218L189.153 58.8133C199.208 73.3781 204.579 90.6638 204.551 108.362C204.551 156.618 165.432 195.737 117.176 195.737C69.6647 195.737 29.8008 155.956 29.8008 108.362C29.8008 100.847 30.7991 93.0864 32.7381 85.8082C32.9914 85.0487 33.2929 84.3092 33.6457 83.6948C34.0004 83.0772 34.3998 82.5984 34.8427 82.3459C35.1024 82.1979 35.3513 82.1973 35.5888 82.2886C35.8318 82.3821 36.0663 82.5738 36.2784 82.8154C36.7035 83.2996 37.0061 83.9467 37.0874 84.2542L37.0875 84.2545C38.3689 89.0544 40.0932 93.7251 42.238 98.2062L42.4758 98.1499C42.289 88.1979 46.5401 79.1247 52.401 71.267L52.4061 71.2601C54.3617 68.6389 56.2539 66.1027 57.8651 62.466C59.4776 58.8262 60.8063 54.0897 61.6449 47.0646C61.7497 46.1863 62.5748 45.5773 63.3894 45.8436C69.7067 47.9114 74.5746 54.2149 77.7323 62.2443C80.888 70.2687 82.3237 79.9892 81.796 88.8423L81.7892 88.9572L81.9031 88.9735C83.6844 89.2285 85.0304 88.9558 86.0449 88.3927C87.0586 87.83 87.7298 86.984 88.1737 86.1118C88.6174 85.2403 88.8362 84.339 88.9444 83.6575C88.9985 83.3163 89.0251 83.0291 89.0382 82.8268C89.0447 82.7256 89.0479 82.6456 89.0494 82.5905C89.0497 82.5793 89.0499 82.5692 89.0501 82.5601C89.0504 82.5468 89.0506 82.5358 89.0507 82.5272L89.0508 82.5105L89.0508 82.506L89.0508 82.5048V82.5044C89.0508 82.5043 89.0508 82.5042 88.9258 82.5048L89.0508 82.5042L89.0507 82.4847L89.0446 82.4661C86.8113 75.6022 88.2956 62.8365 102.2 57.1123H102.201H102.216Z" fill="url(#paint0_linear_446_79)" stroke="black" stroke-width="0.25"/>
<path opacity="0.9" d="M201.815 86.0801C203.942 134.205 164.38 175.698 116.137 175.698C70.9747 175.698 33.9672 140.79 30.6197 96.4851C30.0225 100.634 29.7084 104.819 29.6797 109.01C30.0222 156.415 69.8447 195.863 117.18 195.863C165.505 195.863 204.68 156.688 204.68 108.363C204.68 100.663 203.682 93.1951 201.815 86.0801Z" fill="url(#paint1_radial_446_79)"/>
<path style="mix-blend-mode:screen" d="M115.043 63.3648C114.101 61.6973 109.748 59.2298 107.846 58.7998C115.046 35.7373 151.726 28.6573 174.176 32.7373C183.518 34.4373 195.153 39.5273 198.693 42.1723C188.288 33.6748 173.108 28.3223 156.203 28.3223C131.736 28.3223 107.726 37.7248 102.216 56.9873H102.176C88.1756 62.7373 86.6756 75.5948 88.9256 82.5073C91.0856 74.2598 101.363 64.1248 115.043 63.3648Z" fill="url(#paint2_radial_446_79)"/>
<path d="M140.471 47.4371C120.816 51.3046 114.394 52.5696 107.816 58.8221C115.204 39.2646 134.061 35.2996 156.531 44.2146C151.184 45.3169 145.83 46.392 140.471 47.4396V47.4371Z" fill="url(#paint3_linear_446_79)"/>
<path d="M34.4267 83.0951C29.0567 105.08 33.2067 130.92 57.6017 152.605C50.3392 144.663 41.4717 115.338 61.0392 94.3876C62.3567 92.9751 64.6242 94.0126 64.6967 95.9426C66.3092 139.483 101.442 166.075 141.947 161.103C129.397 160.398 87.8917 145.86 118.767 140.11C134.904 137.103 160.207 132.39 160.207 109.685C160.207 72.8801 131.749 62.1201 114.492 63.7201C102.682 64.8151 92.1692 72.3101 88.9342 82.5026C90.1767 86.5201 85.2242 89.3326 81.9217 88.8601C82.9817 71.1226 76.1717 49.8951 63.4292 45.7251C62.5292 45.4301 61.6342 46.1076 61.5217 47.0501C59.8467 61.0826 56.2167 65.9451 52.3042 71.1926C46.4317 79.0651 42.1642 88.1626 42.3517 98.1526C40.2102 93.6784 38.4887 89.015 37.2092 84.2226C37.0667 83.6826 36.2842 82.1751 35.3392 82.1051C34.8267 82.0676 34.5542 82.5676 34.4267 83.0951Z" fill="url(#paint4_radial_446_79)"/>
<path style="mix-blend-mode:screen" d="M107.922 142.337C131.682 161.63 179.464 147.165 179.464 100.257C160.174 129.497 135.604 149.667 107.924 142.337H107.922Z" fill="url(#paint5_linear_446_79)"/>
<path style="mix-blend-mode:screen" d="M61.0364 94.3874C61.2524 94.1457 61.5246 93.9609 61.8289 93.8493C62.1333 93.7377 62.4604 93.7027 62.7814 93.7474C45.2664 115.11 59.3939 152.627 69.0889 161.845C69.6314 163.38 59.8914 155.397 58.5489 153.53C51.1739 147.272 40.6039 116.265 61.0364 94.3874Z" fill="url(#paint6_linear_446_79)"/>
<path d="M117.177 144.105C140.942 144.105 160.21 128.385 160.21 108.992C160.21 89.5999 140.942 73.8799 117.177 73.8799C96.902 73.8799 74.1345 87.0699 74.1445 109.505C74.1545 144.172 110.78 164.117 142 161.097C139.655 160.825 125.025 160.047 115.137 148.862C114.245 147.855 112.697 146.095 113.4 144.952C114.1 143.81 116.03 144.102 117.175 144.102L117.177 144.105Z" fill="url(#paint7_linear_446_79)"/>
<path opacity="0.6" d="M155.521 93.0374L121.511 125.582C118.494 127.727 115.281 127.882 112.111 125.937L78.7539 93.1574C79.7057 91.6279 80.7756 90.1751 81.9539 88.8124L85.4539 92.0874C94.2139 100.297 101.296 106.93 111.279 115.45C115.784 119.295 117.184 119.22 121.604 115.45C133.024 105.7 141.376 98.3249 152.234 88.6274C153.444 90.0089 154.543 91.4844 155.519 93.0399L155.521 93.0374Z" fill="white"/>
<mask id="mask0_446_79" style="mask-type:luminance" maskUnits="userSpaceOnUse" x="74" y="92" width="87" height="70">
<path d="M160.214 108.992C160.214 128.385 140.946 144.105 117.181 144.105C116.034 144.105 114.106 143.81 113.404 144.955C112.701 146.095 114.249 147.855 115.141 148.862C124.431 159.372 137.909 160.695 141.446 161.042L142.004 161.097C110.784 164.117 74.1589 144.172 74.1489 109.505C74.1163 103.733 75.7228 98.0698 78.7814 93.1747L112.301 123.62C114.686 125.785 118.704 125.785 121.089 123.62L155.244 92.5972C158.419 97.4922 160.214 103.072 160.214 108.992Z" fill="white"/>
</mask>
<g mask="url(#mask0_446_79)">
<path opacity="0.7" d="M64.1797 68.4946H172.947V167.112H64.1797V68.4946Z" fill="url(#paint8_linear_446_79)"/>
<g filter="url(#filter0_f_446_79)">
<path fill-rule="evenodd" clip-rule="evenodd" d="M107.193 123.825C100.855 117.23 81.875 95.3171 81.875 95.3171L83.3425 95.382L113.058 117.575C115.283 119.192 118.457 119.175 120.662 117.537L149.8 95.4121L151.345 95.2896C151.345 95.2896 132.985 116.682 125.953 123.73C118.92 130.777 113.53 130.42 107.193 123.825Z" fill="#458FCD"/>
</g>
</g>
<path d="M123.215 56.3145C127.82 54.8645 127.415 50.307 127.415 50.307C127.415 50.307 125.112 47.5945 120.55 49.097C116.28 50.5045 115.617 53.547 115.617 53.547C115.617 53.547 117.95 57.972 123.215 56.3145Z" fill="white"/>
<g clip-path="url(#clip1_446_79)">
<path d="M257.926 148.572V76.9473H230.426V62.6973H300.926V76.9473H273.426V148.572H257.926ZM346.519 82.4473C360.644 82.4473 370.519 92.8223 370.519 107.447V148.572H355.769V110.447C355.769 101.697 350.144 95.4473 342.144 95.4473C333.519 95.4473 326.394 101.697 326.394 109.447V148.572H311.144V61.1973H326.394V92.8223C330.269 86.5723 337.894 82.4473 346.519 82.4473ZM428.324 83.9473H443.574V148.572H428.324V139.947C424.324 145.947 416.824 150.072 408.324 150.072C394.199 150.072 384.324 139.697 384.324 125.072V83.9473H399.074V122.072C399.074 130.822 404.699 137.072 412.699 137.072C420.699 137.072 427.324 131.697 428.324 124.822V83.9473ZM493.13 82.4473C507.255 82.4473 517.13 92.8223 517.13 107.447V148.572H502.38V110.447C502.38 101.697 496.755 95.4473 488.755 95.4473C480.755 95.4473 474.13 100.822 473.13 107.697V148.572H457.88V83.9473H473.13V92.5723C477.13 86.5723 484.63 82.4473 493.13 82.4473ZM580.311 61.1973H595.561V148.572H580.311V138.572C575.186 145.822 567.436 150.072 557.936 150.072C540.811 150.072 528.311 136.072 528.311 116.197C528.311 96.4473 540.811 82.4473 557.936 82.4473C567.436 82.4473 575.186 86.6973 580.311 93.9473V61.1973ZM562.061 137.072C572.811 137.072 580.311 128.322 580.311 116.197C580.311 104.072 572.811 95.4473 562.061 95.4473C551.186 95.4473 543.436 104.072 543.436 116.197C543.436 128.322 551.186 137.072 562.061 137.072ZM640.354 136.572C646.354 136.572 653.479 133.822 657.104 130.072L666.729 140.072C661.104 146.072 649.854 150.072 640.479 150.072C621.979 150.072 606.729 135.947 606.729 116.072C606.729 96.6973 621.229 82.4473 639.604 82.4473C659.604 82.4473 671.229 97.5723 671.229 121.447H622.479C624.354 130.322 631.104 136.572 640.354 136.572ZM640.229 95.9473C631.729 95.9473 624.854 101.322 622.604 109.822H656.604C654.854 101.697 649.354 95.9473 640.229 95.9473ZM697.572 96.4473C701.697 87.8223 710.072 82.4473 720.697 82.4473V95.4473C706.822 95.4473 697.572 103.697 697.572 115.947V148.572H682.322V83.9473H697.572V96.4473ZM767.621 82.4473C784.746 82.4473 797.246 96.4473 797.246 116.197C797.246 136.072 784.746 150.072 767.621 150.072C757.996 150.072 750.246 145.697 745.121 138.322V148.572H729.871V61.1973H745.121V94.1973C750.246 86.8223 757.996 82.4473 767.621 82.4473ZM763.496 137.072C774.371 137.072 782.121 128.322 782.121 116.197C782.121 104.072 774.371 95.4473 763.496 95.4473C752.746 95.4473 745.246 104.072 745.246 116.197C745.246 128.322 752.746 137.072 763.496 137.072ZM816.289 74.1973C811.414 74.1973 807.539 70.0723 807.539 65.4473C807.539 60.8223 811.414 56.8223 816.289 56.8223C821.039 56.8223 824.914 60.8223 824.914 65.4473C824.914 70.0723 821.039 74.1973 816.289 74.1973ZM808.539 148.572V83.9473H823.789V148.572H808.539ZM853.769 96.4473C857.894 87.8223 866.269 82.4473 876.894 82.4473V95.4473C863.019 95.4473 853.769 103.697 853.769 115.947V148.572H838.519V83.9473H853.769V96.4473ZM934.817 61.1973H950.067V148.572H934.817V138.572C929.692 145.822 921.942 150.072 912.442 150.072C895.317 150.072 882.817 136.072 882.817 116.197C882.817 96.4473 895.317 82.4473 912.442 82.4473C921.942 82.4473 929.692 86.6973 934.817 93.9473V61.1973ZM916.567 137.072C927.317 137.072 934.817 128.322 934.817 116.197C934.817 104.072 927.317 95.4473 916.567 95.4473C905.692 95.4473 897.942 104.072 897.942 116.197C897.942 128.322 905.692 137.072 916.567 137.072Z" fill="#19518F"/>
<path d="M965.188 80.7783C966.304 80.7783 967.335 81.0584 968.282 81.6184C969.245 82.1785 970.006 82.9423 970.564 83.9097C971.138 84.8601 971.426 85.8954 971.426 87.0156C971.426 88.1358 971.138 89.1795 970.564 90.147C970.006 91.0974 969.245 91.8611 968.282 92.4382C967.335 92.9983 966.304 93.2783 965.188 93.2783C964.056 93.2783 963.008 92.9983 962.044 92.4382C961.098 91.8611 960.337 91.0974 959.762 90.147C959.205 89.1795 958.926 88.1358 958.926 87.0156C958.926 85.8954 959.205 84.8601 959.762 83.9097C960.337 82.9423 961.098 82.1785 962.044 81.6184C963.008 81.0584 964.056 80.7783 965.188 80.7783ZM965.188 92.3618C966.152 92.3618 967.039 92.1242 967.851 91.649C968.679 91.1738 969.33 90.5288 969.803 89.7142C970.276 88.8825 970.513 87.983 970.513 87.0156C970.513 86.0482 970.268 85.1571 969.778 84.3425C969.304 83.5278 968.662 82.8829 967.851 82.4076C967.039 81.9324 966.152 81.6948 965.188 81.6948C964.225 81.6948 963.329 81.9324 962.501 82.4076C961.689 82.8829 961.039 83.5278 960.548 84.3425C960.075 85.1571 959.839 86.0482 959.839 87.0156C959.839 87.983 960.075 88.874 960.548 89.6887C961.039 90.5034 961.689 91.1568 962.501 91.649C963.329 92.1242 964.225 92.3618 965.188 92.3618ZM968.561 85.87C968.561 86.447 968.409 86.9562 968.104 87.3975C967.817 87.8218 967.42 88.1273 966.913 88.314L968.687 90.8598H966.786L965.163 88.5431H963.997V90.8598H962.095V83.2223H965.67C966.532 83.2223 967.225 83.4684 967.749 83.9606C968.29 84.4358 968.561 85.0723 968.561 85.87ZM963.997 86.6592H965.467C965.789 86.6592 966.051 86.5913 966.253 86.4555C966.456 86.3028 966.558 86.1076 966.558 85.87C966.558 85.6493 966.456 85.4711 966.253 85.3353C966.051 85.1826 965.789 85.1062 965.467 85.1062H963.997V86.6592Z" fill="#19518F"/>
</g>
</g>
<defs>
<filter id="filter0_f_446_79" x="73.875" y="87.2896" width="85.4688" height="49.604" filterUnits="userSpaceOnUse" color-interpolation-filters="sRGB">
<feFlood flood-opacity="0" result="BackgroundImageFix"/>
<feBlend mode="normal" in="SourceGraphic" in2="BackgroundImageFix" result="shape"/>
<feGaussianBlur stdDeviation="4" result="effect1_foregroundBlur_446_79"/>
</filter>
<linearGradient id="paint0_linear_446_79" x1="60.0458" y1="57.1623" x2="183.396" y2="172.217" gradientUnits="userSpaceOnUse">
<stop stop-color="#1B91F3"/>
<stop offset="1" stop-color="#0B68CB"/>
</linearGradient>
<radialGradient id="paint1_radial_446_79" cx="0" cy="0" r="1" gradientUnits="userSpaceOnUse" gradientTransform="translate(59.8197 96.7501) rotate(66.5177) scale(73.9901 70.8798)">
<stop offset="0.53" stop-color="#0B4186" stop-opacity="0"/>
<stop offset="1" stop-color="#0B4186" stop-opacity="0.45"/>
</radialGradient>
<radialGradient id="paint2_radial_446_79" cx="0" cy="0" r="1" gradientUnits="userSpaceOnUse" gradientTransform="translate(119.426 66.3623) rotate(-127.997) scale(15.8176 26.1745)">
<stop stop-color="#EF3ACC" stop-opacity="0"/>
<stop offset="1" stop-color="#EF3ACC" stop-opacity="0.64"/>
</radialGradient>
<linearGradient id="paint3_linear_446_79" x1="94.3689" y1="86.6146" x2="138.754" y2="37.2046" gradientUnits="userSpaceOnUse">
<stop stop-color="#0F5DB0"/>
<stop offset="1" stop-color="#0F5DB0" stop-opacity="0"/>
</linearGradient>
<radialGradient id="paint4_radial_446_79" cx="0" cy="0" r="1" gradientUnits="userSpaceOnUse" gradientTransform="translate(84.1767 156.038) rotate(-64.2624) scale(115.429 142.589)">
<stop offset="0.02" stop-color="#094188"/>
<stop offset="0.97" stop-color="#0B4186" stop-opacity="0"/>
</radialGradient>
<linearGradient id="paint5_linear_446_79" x1="172.154" y1="122.39" x2="151.517" y2="173.062" gradientUnits="userSpaceOnUse">
<stop stop-color="#E247C4" stop-opacity="0"/>
<stop offset="1" stop-color="#E247C4" stop-opacity="0.64"/>
</linearGradient>
<linearGradient id="paint6_linear_446_79" x1="44.1764" y1="76.9474" x2="62.3589" y2="150.127" gradientUnits="userSpaceOnUse">
<stop offset="0.1" stop-color="#EF3ACC"/>
<stop offset="1" stop-color="#EF3ACC" stop-opacity="0"/>
</linearGradient>
<linearGradient id="paint7_linear_446_79" x1="117.177" y1="86.7374" x2="117.177" y2="160.737" gradientUnits="userSpaceOnUse">
<stop stop-color="white"/>
<stop offset="0.91" stop-color="#BEE1FE"/>
<stop offset="1" stop-color="#96CEFD"/>
</linearGradient>
<linearGradient id="paint8_linear_446_79" x1="118.565" y1="128.612" x2="118.565" y2="159.612" gradientUnits="userSpaceOnUse">
<stop stop-color="#BCE0FD"/>
<stop offset="1" stop-color="#88CCFC"/>
</linearGradient>
<clipPath id="clip0_446_79">
<rect x="0.75" y="0.25" width="1010.5" height="223.5" rx="15" fill="white"/>
</clipPath>
<clipPath id="clip1_446_79">
<rect width="750.896" height="125" fill="white" transform="translate(225.75 49.5)"/>
</clipPath>
</defs>
</svg>
