<svg width="3944" height="750" viewBox="0 0 3944 750" fill="none" xmlns="http://www.w3.org/2000/svg">
<g clip-path="url(#clip0_1_68)">
<path fill-rule="evenodd" clip-rule="evenodd" d="M315.024 170.337H314.956H314.865C259.014 193.275 253.029 244.549 262.005 272.131C262.005 272.131 262.006 272.339 261.991 272.716C294.324 249.976 335.67 237.722 374.703 237.722C469.515 237.722 546.376 300.437 546.376 377.799C546.376 455.162 469.515 517.877 374.703 517.877C373.971 517.877 373.158 517.846 372.298 517.814C367.792 517.646 361.988 517.431 359.636 521.262C356.835 525.824 363.011 532.839 366.568 536.863C403.632 578.791 457.393 584.06 471.513 585.445C472.42 585.533 473.164 585.606 473.73 585.672C349.184 597.717 203.076 518.151 203.03 379.844C203.019 347.243 215.063 319.535 234.289 297.481C234.243 297.475 234.198 297.468 234.151 297.462C234.119 297.457 234.087 297.453 234.055 297.448C238.287 226.676 211.113 142.045 160.284 125.403C156.687 124.226 153.124 126.93 152.675 130.688C145.991 186.668 131.516 206.071 115.903 227.003C92.4775 258.407 75.4549 294.702 76.1969 334.561C67.6956 316.768 60.803 298.193 55.6876 278.986C54.9945 276.383 50.7129 268.389 46.0024 271.07C42.2395 273.212 39.405 279.069 37.3784 285.174C29.6331 314.245 25.6357 345.26 25.6357 375.289C25.6357 565.429 184.891 724.359 374.706 724.359C567.492 724.359 723.775 568.075 723.775 375.29C723.775 301.786 701.057 233.589 662.258 177.337C663.875 177.307 665.495 177.292 667.12 177.292C682.187 177.292 696.883 178.581 711.051 181.029C689.694 157.298 660.882 138.117 627.345 125.658C649.734 117.538 674.195 112.507 699.907 111.233C658.402 77.3366 597.845 55.9766 530.405 55.9766C432.792 55.9766 337.005 93.4925 315.024 170.337ZM334.857 436.977C309.574 410.662 233.85 323.253 233.85 323.253L239.712 323.504L358.25 412.043C367.131 418.494 379.789 418.429 388.59 411.887L504.827 323.619L510.998 323.139C510.998 323.139 437.751 408.478 409.697 436.594C381.641 464.71 360.14 463.29 334.857 436.977ZM415.553 143.684C415.553 143.684 417.161 161.871 398.79 167.657C377.79 174.27 368.482 156.605 368.482 156.605C368.482 156.605 371.121 144.475 388.16 138.864C406.361 132.869 415.553 143.684 415.553 143.684Z" fill="#2A284B"/>
<g clip-path="url(#clip1_1_68)">
<path d="M1035.57 279.367H925.57V222.367H1207.57V279.367H1098.07V565.867H1035.57V279.367ZM1400.91 301.367C1419.57 301.367 1436.07 305.701 1450.41 314.367C1465.07 322.701 1476.41 334.534 1484.41 349.867C1492.74 364.867 1496.91 382.034 1496.91 401.367V565.867H1437.41V413.367C1437.41 395.701 1432.41 381.367 1422.41 370.367C1412.41 359.034 1399.41 353.367 1383.41 353.367C1365.74 353.367 1350.74 358.867 1338.41 369.867C1326.41 380.534 1320.41 393.701 1320.41 409.367V565.867H1259.41V216.367H1320.41V342.367C1328.41 330.034 1339.57 320.201 1353.91 312.867C1368.24 305.2 1383.91 301.367 1400.91 301.367ZM1784.9 307.367V565.867H1723.4V531.867C1715.4 544.201 1704.23 554.034 1689.9 561.367C1675.9 568.367 1660.4 571.867 1643.4 571.867C1624.73 571.867 1608.07 567.701 1593.4 559.367C1579.07 550.701 1567.73 538.867 1559.4 523.867C1551.4 508.534 1547.4 491.201 1547.4 471.867V307.367H1606.4V459.867C1606.4 477.534 1611.4 492.034 1621.4 503.367C1631.73 514.367 1644.9 519.867 1660.9 519.867C1678.57 519.867 1693.4 514.534 1705.4 503.867C1717.4 492.867 1723.4 479.534 1723.4 463.867V307.367H1784.9ZM1984.95 301.367C2003.62 301.367 2020.28 305.701 2034.95 314.367C2049.62 322.701 2060.95 334.534 2068.95 349.867C2077.28 364.867 2081.45 382.034 2081.45 401.367V565.867H2021.95V413.367C2021.95 395.701 2016.78 381.367 2006.45 370.367C1996.45 359.034 1983.45 353.367 1967.45 353.367C1949.78 353.367 1934.95 358.867 1922.95 369.867C1910.95 380.534 1904.95 393.701 1904.95 409.367V565.867H1843.95V307.367H1904.95V341.367C1912.95 329.034 1923.95 319.367 1937.95 312.367C1952.28 305.034 1967.95 301.367 1984.95 301.367ZM2392.5 216.367V565.867H2331.5V525.367C2321.5 540.034 2308.67 551.534 2293 559.867C2277.67 567.867 2260.67 571.867 2242 571.867C2219.33 571.867 2199 566.201 2181 554.867C2163 543.201 2148.83 527.034 2138.5 506.367C2128.17 485.701 2123 462.367 2123 436.367C2123 410.367 2128.17 387.201 2138.5 366.867C2148.83 346.201 2163 330.201 2181 318.867C2199 307.201 2219.33 301.367 2242 301.367C2260.67 301.367 2277.67 305.534 2293 313.867C2308.67 321.867 2321.5 333.201 2331.5 347.867V216.367H2392.5ZM2258.5 519.867C2272.5 519.867 2285 516.367 2296 509.367C2307.33 502.034 2316 492.034 2322 479.367C2328.33 466.701 2331.5 452.367 2331.5 436.367C2331.5 412.034 2324.67 392.201 2311 376.867C2297.33 361.201 2279.83 353.367 2258.5 353.367C2236.5 353.367 2218.5 361.201 2204.5 376.867C2190.5 392.201 2183.5 412.034 2183.5 436.367C2183.5 460.701 2190.5 480.701 2204.5 496.367C2218.5 512.034 2236.5 519.867 2258.5 519.867ZM2573.93 522.867C2587.26 522.867 2600.43 520.367 2613.43 515.367C2626.76 510.367 2637.6 503.867 2645.93 495.867L2680.93 531.867C2669.93 543.534 2654.43 553.201 2634.43 560.867C2614.43 568.201 2594.93 571.867 2575.93 571.867C2551.26 571.867 2528.6 566.034 2507.93 554.367C2487.26 542.701 2470.76 526.534 2458.43 505.867C2446.43 485.201 2440.43 461.867 2440.43 435.867C2440.43 410.201 2446.26 387.201 2457.93 366.867C2469.6 346.534 2485.43 330.534 2505.43 318.867C2525.76 307.201 2548.1 301.367 2572.43 301.367C2612.1 301.367 2643.1 315.034 2665.43 342.367C2688.1 369.701 2699.43 407.034 2699.43 454.367H2499.43C2502.76 475.034 2511.1 491.701 2524.43 504.367C2537.76 516.701 2554.26 522.867 2573.93 522.867ZM2573.43 350.367C2555.1 350.367 2539.26 356.201 2525.93 367.867C2512.6 379.201 2503.93 394.534 2499.93 413.867H2640.43C2637.43 394.867 2630.1 379.534 2618.43 367.867C2607.1 356.201 2592.1 350.367 2573.43 350.367ZM2804.05 356.367C2812.38 339.367 2824.72 326.034 2841.05 316.367C2857.38 306.367 2875.88 301.367 2896.55 301.367V353.367C2868.88 353.367 2846.55 360.867 2829.55 375.867C2812.55 390.867 2804.05 410.701 2804.05 435.367V565.867H2743.05V307.367H2804.05V356.367ZM3091.9 301.367C3114.57 301.367 3134.9 307.201 3152.9 318.867C3170.9 330.201 3185.07 346.201 3195.4 366.867C3205.73 387.201 3210.9 410.367 3210.9 436.367C3210.9 462.367 3205.73 485.701 3195.4 506.367C3185.07 527.034 3170.9 543.201 3152.9 554.867C3134.9 566.201 3114.57 571.867 3091.9 571.867C3073.23 571.867 3056.07 567.867 3040.4 559.867C3025.07 551.534 3012.4 540.034 3002.4 525.367V565.867H2941.4V216.367H3002.4V347.867C3012.4 333.201 3025.07 321.867 3040.4 313.867C3056.07 305.534 3073.23 301.367 3091.9 301.367ZM3075.4 519.867C3097.4 519.867 3115.4 512.034 3129.4 496.367C3143.4 480.701 3150.4 460.701 3150.4 436.367C3150.4 412.034 3143.4 392.201 3129.4 376.867C3115.4 361.201 3097.4 353.367 3075.4 353.367C3054.07 353.367 3036.57 361.201 3022.9 376.867C3009.23 392.201 3002.4 412.034 3002.4 436.367C3002.4 452.367 3005.4 466.701 3011.4 479.367C3017.73 492.034 3026.4 502.034 3037.4 509.367C3048.73 516.367 3061.4 519.867 3075.4 519.867ZM3256.84 307.367H3317.84V565.867H3256.84V307.367ZM3287.34 268.367C3277.67 268.367 3269.34 264.867 3262.34 257.867C3255.67 250.867 3252.34 242.701 3252.34 233.367C3252.34 224.034 3255.67 216.034 3262.34 209.367C3269.34 202.367 3277.67 198.867 3287.34 198.867C3296.67 198.867 3304.67 202.367 3311.34 209.367C3318.01 216.034 3321.34 224.034 3321.34 233.367C3321.34 242.701 3318.01 250.867 3311.34 257.867C3304.67 264.867 3296.67 268.367 3287.34 268.367ZM3438.02 356.367C3446.35 339.367 3458.68 326.034 3475.02 316.367C3491.35 306.367 3509.85 301.367 3530.52 301.367V353.367C3502.85 353.367 3480.52 360.867 3463.52 375.867C3446.52 390.867 3438.02 410.701 3438.02 435.367V565.867H3377.02V307.367H3438.02V356.367ZM3819.12 216.367V565.867H3758.12V525.367C3748.12 540.034 3735.29 551.534 3719.62 559.867C3704.29 567.867 3687.29 571.867 3668.62 571.867C3645.95 571.867 3625.62 566.201 3607.62 554.867C3589.62 543.201 3575.45 527.034 3565.12 506.367C3554.79 485.701 3549.62 462.367 3549.62 436.367C3549.62 410.367 3554.79 387.201 3565.12 366.867C3575.45 346.201 3589.62 330.201 3607.62 318.867C3625.62 307.201 3645.95 301.367 3668.62 301.367C3687.29 301.367 3704.29 305.534 3719.62 313.867C3735.29 321.867 3748.12 333.201 3758.12 347.867V216.367H3819.12ZM3685.12 519.867C3699.12 519.867 3711.62 516.367 3722.62 509.367C3733.95 502.034 3742.62 492.034 3748.62 479.367C3754.95 466.701 3758.12 452.367 3758.12 436.367C3758.12 412.034 3751.29 392.201 3737.62 376.867C3723.95 361.201 3706.45 353.367 3685.12 353.367C3663.12 353.367 3645.12 361.201 3631.12 376.867C3617.12 392.201 3610.12 412.034 3610.12 436.367C3610.12 460.701 3617.12 480.701 3631.12 496.367C3645.12 512.034 3663.12 519.867 3685.12 519.867Z" fill="#2A284B"/>
<path d="M3885.62 292.691C3890.08 292.691 3894.21 293.812 3897.99 296.052C3901.85 298.292 3904.89 301.347 3907.12 305.217C3909.42 309.019 3910.57 313.16 3910.57 317.64C3910.57 322.121 3909.42 326.296 3907.12 330.166C3904.89 333.968 3901.85 337.023 3897.99 339.331C3894.21 341.571 3890.08 342.691 3885.62 342.691C3881.09 342.691 3876.9 341.571 3873.04 339.331C3869.26 337.023 3866.22 333.968 3863.92 330.166C3861.69 326.296 3860.57 322.121 3860.57 317.64C3860.57 313.16 3861.69 309.019 3863.92 305.217C3866.22 301.347 3869.26 298.292 3873.04 296.052C3876.9 293.812 3881.09 292.691 3885.62 292.691ZM3885.62 339.025C3889.47 339.025 3893.02 338.075 3896.27 336.174C3899.58 334.273 3902.19 331.693 3904.08 328.435C3905.97 325.108 3906.92 321.51 3906.92 317.64C3906.92 313.771 3905.94 310.207 3903.98 306.948C3902.08 303.689 3899.52 301.11 3896.27 299.209C3893.02 297.308 3889.47 296.357 3885.62 296.357C3881.77 296.357 3878.18 297.308 3874.87 299.209C3871.63 301.11 3869.02 303.689 3867.06 306.948C3865.17 310.207 3864.22 313.771 3864.22 317.64C3864.22 321.51 3865.17 325.074 3867.06 328.333C3869.02 331.592 3871.63 334.205 3874.87 336.174C3878.18 338.075 3881.77 339.025 3885.62 339.025ZM3899.11 313.058C3899.11 315.366 3898.5 317.403 3897.28 319.168C3896.13 320.865 3894.55 322.087 3892.52 322.834L3899.62 333.017H3892.01L3885.52 323.75H3880.85V333.017H3873.25V302.467H3887.55C3891 302.467 3893.77 303.452 3895.86 305.421C3898.03 307.321 3899.11 309.867 3899.11 313.058ZM3880.85 316.215H3886.74C3888.02 316.215 3889.07 315.943 3889.88 315.4C3890.69 314.789 3891.1 314.008 3891.1 313.058C3891.1 312.175 3890.69 311.463 3889.88 310.92C3889.07 310.309 3888.02 310.003 3886.74 310.003H3880.85V316.215Z" fill="#2A284B"/>
</g>
</g>
<defs>
<clipPath id="clip0_1_68">
<rect width="3944" height="750" fill="white"/>
</clipPath>
<clipPath id="clip1_1_68">
<rect width="3317" height="585" fill="white" transform="translate(906.357 82.7891)"/>
</clipPath>
</defs>
</svg>
