<svg width="1326" height="1056" viewBox="0 0 1326 1056" fill="none" xmlns="http://www.w3.org/2000/svg">
<g clip-path="url(#clip0_1_82)">
<g clip-path="url(#clip1_1_82)">
<path d="M47.4586 914.432H-1.45606V889.085H123.943V914.432H75.2511V1041.83H47.4586V914.432ZM209.916 924.215C218.216 924.215 225.554 926.142 231.927 929.996C238.449 933.701 243.489 938.963 247.047 945.782C250.752 952.452 252.605 960.086 252.605 968.683V1041.83H226.147V974.019C226.147 966.163 223.923 959.789 219.476 954.898C215.03 949.858 209.249 947.338 202.134 947.338C194.278 947.338 187.608 949.784 182.123 954.675C176.787 959.419 174.119 965.274 174.119 972.24V1041.83H146.994V886.417H174.119V942.447C177.677 936.962 182.642 932.59 189.016 929.329C195.39 925.919 202.356 924.215 209.916 924.215ZM380.669 926.883V1041.83H353.321V1026.71C349.764 1032.2 344.798 1036.57 338.425 1039.83C332.199 1042.94 325.307 1044.5 317.747 1044.5C309.446 1044.5 302.035 1042.65 295.513 1038.94C289.139 1035.09 284.1 1029.83 280.394 1023.16C276.837 1016.34 275.058 1008.63 275.058 1000.03V926.883H301.294V994.696C301.294 1002.55 303.517 1009 307.964 1014.04C312.559 1018.93 318.414 1021.38 325.529 1021.38C333.385 1021.38 339.981 1019.01 345.317 1014.26C350.653 1009.37 353.321 1003.44 353.321 996.475V926.883H380.669ZM469.627 924.215C477.928 924.215 485.339 926.142 491.861 929.996C498.383 933.701 503.423 938.963 506.98 945.782C510.686 952.452 512.539 960.086 512.539 968.683V1041.83H486.081V974.019C486.081 966.163 483.783 959.789 479.188 954.898C474.741 949.858 468.96 947.338 461.846 947.338C453.99 947.338 447.393 949.784 442.057 954.675C436.721 959.419 434.053 965.274 434.053 972.24V1041.83H406.928V926.883H434.053V942.002C437.611 936.518 442.502 932.219 448.728 929.106C455.101 925.845 462.068 924.215 469.627 924.215ZM650.857 886.417V1041.83H623.731V1023.82C619.284 1030.34 613.578 1035.46 606.611 1039.16C599.793 1042.72 592.233 1044.5 583.932 1044.5C573.853 1044.5 564.811 1041.98 556.807 1036.94C548.803 1031.75 542.503 1024.56 537.908 1015.37C533.313 1006.18 531.016 995.808 531.016 984.246C531.016 972.685 533.313 962.383 537.908 953.341C542.503 944.151 548.803 937.036 556.807 931.997C564.811 926.809 573.853 924.215 583.932 924.215C592.233 924.215 599.793 926.068 606.611 929.773C613.578 933.331 619.284 938.37 623.731 944.892V886.417H650.857ZM591.27 1021.38C597.495 1021.38 603.054 1019.82 607.945 1016.71C612.985 1013.45 616.839 1009 619.507 1003.37C622.323 997.735 623.731 991.361 623.731 984.246C623.731 973.426 620.693 964.606 614.615 957.788C608.538 950.821 600.756 947.338 591.27 947.338C581.487 947.338 573.483 950.821 567.257 957.788C561.032 964.606 557.919 973.426 557.919 984.246C557.919 995.067 561.032 1003.96 567.257 1010.93C573.483 1017.89 581.487 1021.38 591.27 1021.38ZM731.535 1022.71C737.464 1022.71 743.319 1021.6 749.099 1019.38C755.029 1017.15 759.846 1014.26 763.552 1010.7L779.115 1026.71C774.224 1031.9 767.331 1036.2 758.438 1039.61C749.544 1042.87 740.873 1044.5 732.424 1044.5C721.455 1044.5 711.376 1041.91 702.186 1036.72C692.996 1031.53 685.659 1024.34 680.174 1015.15C674.838 1005.96 672.17 995.586 672.17 984.024C672.17 972.611 674.764 962.383 679.952 953.341C685.14 944.299 692.181 937.185 701.074 931.997C710.116 926.809 720.047 924.215 730.868 924.215C748.507 924.215 762.292 930.292 772.223 942.447C782.302 954.601 787.342 971.203 787.342 992.251H698.406C699.888 1001.44 703.594 1008.85 709.523 1014.48C715.452 1019.97 722.789 1022.71 731.535 1022.71ZM731.312 946.004C723.16 946.004 716.119 948.598 710.19 953.786C704.261 958.826 700.407 965.644 698.628 974.241H761.106C759.772 965.792 756.511 958.974 751.323 953.786C746.283 948.598 739.613 946.004 731.312 946.004ZM833.865 948.672C837.57 941.113 843.055 935.184 850.318 930.885C857.581 926.438 865.807 924.215 874.997 924.215V947.338C862.695 947.338 852.763 950.673 845.204 957.343C837.644 964.014 833.865 972.833 833.865 983.802V1041.83H806.739V926.883H833.865V948.672ZM961.864 924.215C971.944 924.215 980.986 926.809 988.99 931.997C996.994 937.036 1003.29 944.151 1007.89 953.341C1012.48 962.383 1014.78 972.685 1014.78 984.246C1014.78 995.808 1012.48 1006.18 1007.89 1015.37C1003.29 1024.56 996.994 1031.75 988.99 1036.94C980.986 1041.98 971.944 1044.5 961.864 1044.5C953.564 1044.5 945.93 1042.72 938.963 1039.16C932.145 1035.46 926.512 1030.34 922.066 1023.82V1041.83H894.94V886.417H922.066V944.892C926.512 938.37 932.145 933.331 938.963 929.773C945.93 926.068 953.564 924.215 961.864 924.215ZM954.527 1021.38C964.31 1021.38 972.314 1017.89 978.54 1010.93C984.765 1003.96 987.878 995.067 987.878 984.246C987.878 973.426 984.765 964.606 978.54 957.788C972.314 950.821 964.31 947.338 954.527 947.338C945.041 947.338 937.259 950.821 931.182 957.788C925.104 964.606 922.066 973.426 922.066 984.246C922.066 991.361 923.4 997.735 926.068 1003.37C928.884 1009 932.738 1013.45 937.629 1016.71C942.669 1019.82 948.302 1021.38 954.527 1021.38ZM1035.21 926.883H1062.34V1041.83H1035.21V926.883ZM1048.77 909.54C1044.47 909.54 1040.77 907.984 1037.66 904.871C1034.69 901.759 1033.21 898.127 1033.21 893.977C1033.21 889.826 1034.69 886.269 1037.66 883.304C1040.77 880.192 1044.47 878.635 1048.77 878.635C1052.92 878.635 1056.48 880.192 1059.45 883.304C1062.41 886.269 1063.89 889.826 1063.89 893.977C1063.89 898.127 1062.41 901.759 1059.45 904.871C1056.48 907.984 1052.92 909.54 1048.77 909.54ZM1115.78 948.672C1119.48 941.113 1124.97 935.184 1132.23 930.885C1139.49 926.438 1147.72 924.215 1156.91 924.215V947.338C1144.61 947.338 1134.67 950.673 1127.11 957.343C1119.56 964.014 1115.78 972.833 1115.78 983.802V1041.83H1088.65V926.883H1115.78V948.672ZM1285.24 886.417V1041.83H1258.12V1023.82C1253.67 1030.34 1247.97 1035.46 1241 1039.16C1234.18 1042.72 1226.62 1044.5 1218.32 1044.5C1208.24 1044.5 1199.2 1041.98 1191.2 1036.94C1183.19 1031.75 1176.89 1024.56 1172.3 1015.37C1167.7 1006.18 1165.4 995.808 1165.4 984.246C1165.4 972.685 1167.7 962.383 1172.3 953.341C1176.89 944.151 1183.19 937.036 1191.2 931.997C1199.2 926.809 1208.24 924.215 1218.32 924.215C1226.62 924.215 1234.18 926.068 1241 929.773C1247.97 933.331 1253.67 938.37 1258.12 944.892V886.417H1285.24ZM1225.66 1021.38C1231.88 1021.38 1237.44 1019.82 1242.33 1016.71C1247.37 1013.45 1251.23 1009 1253.9 1003.37C1256.71 997.735 1258.12 991.361 1258.12 984.246C1258.12 973.426 1255.08 964.606 1249 957.788C1242.93 950.821 1235.14 947.338 1225.66 947.338C1215.88 947.338 1207.87 950.821 1201.65 957.788C1195.42 964.606 1192.31 973.426 1192.31 984.246C1192.31 995.067 1195.42 1003.96 1201.65 1010.93C1207.87 1017.89 1215.88 1021.38 1225.66 1021.38Z" fill="#2A284B"/>
<path d="M1314.82 920.339C1316.8 920.339 1318.63 920.837 1320.32 921.833C1322.03 922.83 1323.38 924.188 1324.38 925.909C1325.4 927.599 1325.91 929.441 1325.91 931.433C1325.91 933.426 1325.4 935.282 1324.38 937.003C1323.38 938.694 1322.03 940.052 1320.32 941.079C1318.63 942.075 1316.8 942.573 1314.82 942.573C1312.8 942.573 1310.94 942.075 1309.22 941.079C1307.54 940.052 1306.19 938.694 1305.16 937.003C1304.17 935.282 1303.68 933.426 1303.68 931.433C1303.68 929.441 1304.17 927.599 1305.16 925.909C1306.19 924.188 1307.54 922.83 1309.22 921.833C1310.94 920.837 1312.8 920.339 1314.82 920.339ZM1314.82 940.943C1316.53 940.943 1318.11 940.52 1319.55 939.675C1321.02 938.83 1322.18 937.682 1323.02 936.233C1323.87 934.754 1324.29 933.154 1324.29 931.433C1324.29 929.713 1323.85 928.128 1322.98 926.679C1322.14 925.23 1320.99 924.082 1319.55 923.237C1318.11 922.392 1316.53 921.969 1314.82 921.969C1313.1 921.969 1311.51 922.392 1310.04 923.237C1308.59 924.082 1307.43 925.23 1306.56 926.679C1305.72 928.128 1305.3 929.713 1305.3 931.433C1305.3 933.154 1305.72 934.739 1306.56 936.188C1307.43 937.637 1308.59 938.799 1310.04 939.675C1311.51 940.52 1313.1 940.943 1314.82 940.943ZM1320.81 929.396C1320.81 930.422 1320.54 931.328 1320 932.113C1319.49 932.867 1318.78 933.411 1317.88 933.743L1321.04 938.271H1317.66L1314.77 934.15H1312.7V938.271H1309.31V924.686H1315.67C1317.21 924.686 1318.44 925.124 1319.37 925.999C1320.33 926.845 1320.81 927.977 1320.81 929.396ZM1312.7 930.799H1315.31C1315.88 930.799 1316.35 930.679 1316.71 930.437C1317.07 930.165 1317.25 929.818 1317.25 929.396C1317.25 929.003 1317.07 928.686 1316.71 928.445C1316.35 928.173 1315.88 928.037 1315.31 928.037H1312.7V930.799Z" fill="#2A284B"/>
</g>
<path d="M588.1 137.66H588.16C610.2 60.6101 706.24 23.0001 804.11 23.0001C871.74 23.0001 932.45 44.4101 974.07 78.4001C949.232 79.5714 924.708 84.4451 901.31 92.8601C934.94 105.36 963.83 124.59 985.24 148.38C969.087 145.6 952.707 144.361 936.32 144.68C976.596 203.023 998.114 272.265 998 343.16C998 536.46 841.3 693.16 648 693.16C457.68 693.16 298 533.81 298 343.16C298 313.05 302 281.96 309.77 252.8C311.81 246.68 314.65 240.81 318.42 238.66C323.14 235.97 327.44 243.99 328.13 246.6C333.248 265.77 340.134 284.423 348.7 302.32C347.95 262.36 365.02 225.96 388.5 194.48C404.16 173.49 418.68 154.04 425.38 97.9101C425.83 94.1401 429.4 91.4301 433.01 92.6101C483.97 109.29 511.21 194.15 506.98 265.11C535.13 269.14 535 239.73 535 239.73C526 212.07 532 160.66 588 137.66H588.1Z" fill="url(#paint0_linear_1_82)"/>
<path opacity="0.9" d="M986.55 254.03C995.06 446.53 836.81 612.5 643.84 612.5C463.19 612.5 315.16 472.87 301.77 295.65C299.381 312.246 298.125 328.984 298.01 345.75C299.38 535.37 458.67 693.16 648.01 693.16C841.31 693.16 998.01 536.46 998.01 343.16C998.01 312.36 994.02 282.49 986.55 254.03Z" fill="url(#paint1_radial_1_82)"/>
<path style="mix-blend-mode:screen" d="M639.47 163.17C635.7 156.5 618.29 146.63 610.68 144.91C639.48 52.6601 786.2 24.3401 876 40.6601C913.37 47.4601 959.91 67.8201 974.07 78.4001C932.45 44.4101 871.73 23.0001 804.11 23.0001C706.24 23.0001 610.2 60.6101 588.16 137.66H588C532 160.66 526 212.09 535 239.74C543.64 206.75 584.75 166.21 639.47 163.17Z" fill="url(#paint2_radial_1_82)"/>
<path d="M741.18 99.4604C662.56 114.93 636.87 119.99 610.56 145C640.11 66.7704 715.54 50.9104 805.42 86.5704C784.028 90.9798 762.615 95.2798 741.18 99.4704V99.4604Z" fill="url(#paint3_linear_1_82)"/>
<path d="M317 242.09C295.52 330.03 312.12 433.39 409.7 520.13C380.65 488.36 345.18 371.06 423.45 287.26C428.72 281.61 437.79 285.76 438.08 293.48C444.53 467.64 585.06 574.01 747.08 554.12C696.88 551.3 530.86 493.15 654.36 470.15C718.91 458.12 820.12 439.27 820.12 348.45C820.12 201.23 706.29 158.19 637.26 164.59C590.02 168.97 547.97 198.95 535.03 239.72C540 255.79 520.19 267.04 506.98 265.15C511.22 194.2 483.98 109.29 433.01 92.6104C429.41 91.4304 425.83 94.1404 425.38 97.9104C418.68 154.04 404.16 173.49 388.51 194.48C365.02 225.97 347.95 262.36 348.7 302.32C340.134 284.424 333.248 265.77 328.13 246.6C327.56 244.44 324.43 238.41 320.65 238.13C318.6 237.98 317.51 239.98 317 242.09Z" fill="url(#paint4_radial_1_82)"/>
<path style="mix-blend-mode:screen" d="M610.99 479.06C706.03 556.23 897.16 498.37 897.16 310.74C820 427.7 721.72 508.38 611 479.06H610.99Z" fill="url(#paint5_linear_1_82)"/>
<path style="mix-blend-mode:screen" d="M423.45 287.26C424.314 286.293 425.403 285.554 426.62 285.108C427.838 284.661 429.146 284.521 430.43 284.7C360.37 370.15 416.88 520.22 455.66 557.09C457.83 563.23 418.87 531.3 413.5 523.83C384 498.8 341.72 374.77 423.45 287.26Z" fill="url(#paint6_linear_1_82)"/>
<path d="M648 486.13C743.06 486.13 820.13 423.25 820.13 345.68C820.13 268.11 743.06 205.23 648 205.23C566.9 205.23 475.83 257.99 475.87 347.73C475.91 486.4 622.41 566.18 747.29 554.1C737.91 553.01 679.39 549.9 639.84 505.16C636.27 501.13 630.08 494.09 632.89 489.52C635.69 484.95 643.41 486.12 647.99 486.12L648 486.13Z" fill="url(#paint7_linear_1_82)"/>
<path opacity="0.6" d="M801.38 281.86L665.34 412.04C653.27 420.62 640.42 421.24 627.74 413.46L494.31 282.34C498.117 276.222 502.396 270.411 507.11 264.96L521.11 278.06C556.15 310.9 584.48 337.43 624.41 371.51C642.43 386.89 648.03 386.59 665.71 371.51C711.39 332.51 744.8 303.01 788.23 264.22C793.07 269.746 797.464 275.648 801.37 281.87L801.38 281.86Z" fill="white"/>
<mask id="mask0_1_82" style="mask-type:luminance" maskUnits="userSpaceOnUse" x="475" y="280" width="346" height="276">
<path d="M820.13 345.68C820.13 423.25 743.06 486.13 648 486.13C643.41 486.13 635.7 484.95 632.89 489.53C630.08 494.09 636.27 501.13 639.84 505.16C677 547.2 730.91 552.49 745.06 553.88L747.29 554.1C622.41 566.18 475.91 486.4 475.87 347.73C475.74 324.642 482.165 301.991 494.4 282.41L628.48 404.19C638.02 412.85 654.09 412.85 663.63 404.19L800.25 280.1C812.95 299.68 820.13 322 820.13 345.68Z" fill="white"/>
</mask>
<g mask="url(#mask0_1_82)">
<path opacity="0.7" d="M436 183.69H871.07V578.16H436V183.69Z" fill="url(#paint8_linear_1_82)"/>
<g filter="url(#filter0_f_1_82)">
<path fill-rule="evenodd" clip-rule="evenodd" d="M608.04 405.01C582.69 378.63 506.77 290.98 506.77 290.98L512.64 291.24L631.5 380.01C640.4 386.48 653.1 386.41 661.92 379.86L778.47 291.36L784.65 290.87C784.65 290.87 711.21 376.44 683.08 404.63C654.95 432.82 633.39 431.39 608.04 405.01Z" fill="#458FCD"/>
</g>
</g>
<path d="M672.15 134.97C690.57 129.17 688.95 110.94 688.95 110.94C688.95 110.94 679.74 100.09 661.49 106.1C644.41 111.73 641.76 123.9 641.76 123.9C641.76 123.9 651.09 141.6 672.15 134.97Z" fill="white"/>
</g>
<defs>
<filter id="filter0_f_1_82" x="474.77" y="258.87" width="341.88" height="198.416" filterUnits="userSpaceOnUse" color-interpolation-filters="sRGB">
<feFlood flood-opacity="0" result="BackgroundImageFix"/>
<feBlend mode="normal" in="SourceGraphic" in2="BackgroundImageFix" result="shape"/>
<feGaussianBlur stdDeviation="16" result="effect1_foregroundBlur_1_82"/>
</filter>
<linearGradient id="paint0_linear_1_82" x1="419.48" y1="138.36" x2="912.88" y2="598.58" gradientUnits="userSpaceOnUse">
<stop stop-color="#1B91F3"/>
<stop offset="1" stop-color="#0B68CB"/>
</linearGradient>
<radialGradient id="paint1_radial_1_82" cx="0" cy="0" r="1" gradientUnits="userSpaceOnUse" gradientTransform="translate(418.57 296.71) rotate(66.5177) scale(295.96 283.519)">
<stop offset="0.53" stop-color="#0B4186" stop-opacity="0"/>
<stop offset="1" stop-color="#0B4186" stop-opacity="0.45"/>
</radialGradient>
<radialGradient id="paint2_radial_1_82" cx="0" cy="0" r="1" gradientUnits="userSpaceOnUse" gradientTransform="translate(657 175.16) rotate(-127.997) scale(63.2702 104.698)">
<stop stop-color="#EF3ACC" stop-opacity="0"/>
<stop offset="1" stop-color="#EF3ACC" stop-opacity="0.64"/>
</radialGradient>
<linearGradient id="paint3_linear_1_82" x1="556.77" y1="256.17" x2="734.31" y2="58.5304" gradientUnits="userSpaceOnUse">
<stop stop-color="#0F5DB0"/>
<stop offset="1" stop-color="#0F5DB0" stop-opacity="0"/>
</linearGradient>
<radialGradient id="paint4_radial_1_82" cx="0" cy="0" r="1" gradientUnits="userSpaceOnUse" gradientTransform="translate(516 533.86) rotate(-64.2624) scale(461.716 570.355)">
<stop offset="0.02" stop-color="#094188"/>
<stop offset="0.97" stop-color="#0B4186" stop-opacity="0"/>
</radialGradient>
<linearGradient id="paint5_linear_1_82" x1="867.92" y1="399.27" x2="785.37" y2="601.96" gradientUnits="userSpaceOnUse">
<stop stop-color="#E247C4" stop-opacity="0"/>
<stop offset="1" stop-color="#E247C4" stop-opacity="0.64"/>
</linearGradient>
<linearGradient id="paint6_linear_1_82" x1="356.01" y1="217.5" x2="428.74" y2="510.22" gradientUnits="userSpaceOnUse">
<stop offset="0.1" stop-color="#EF3ACC"/>
<stop offset="1" stop-color="#EF3ACC" stop-opacity="0"/>
</linearGradient>
<linearGradient id="paint7_linear_1_82" x1="648" y1="256.66" x2="648" y2="552.66" gradientUnits="userSpaceOnUse">
<stop stop-color="white"/>
<stop offset="0.91" stop-color="#BEE1FE"/>
<stop offset="1" stop-color="#96CEFD"/>
</linearGradient>
<linearGradient id="paint8_linear_1_82" x1="653.54" y1="424.16" x2="653.54" y2="548.16" gradientUnits="userSpaceOnUse">
<stop stop-color="#BCE0FD"/>
<stop offset="1" stop-color="#88CCFC"/>
</linearGradient>
<clipPath id="clip0_1_82">
<rect width="1325.27" height="1056" fill="white"/>
</clipPath>
<clipPath id="clip1_1_82">
<rect width="1328" height="260" fill="white" transform="translate(-2 827)"/>
</clipPath>
</defs>
</svg>
