<svg width="1326" height="1056" viewBox="0 0 1326 1056" fill="none" xmlns="http://www.w3.org/2000/svg">
<g clip-path="url(#clip0_1_106)">
<g clip-path="url(#clip1_1_106)">
<path d="M47.4586 914.432H-1.45606V889.085H123.943V914.432H75.2511V1041.83H47.4586V914.432ZM209.916 924.215C218.216 924.215 225.554 926.142 231.927 929.996C238.449 933.701 243.489 938.963 247.047 945.782C250.752 952.452 252.605 960.085 252.605 968.683V1041.83H226.147V974.019C226.147 966.163 223.923 959.789 219.476 954.898C215.03 949.858 209.249 947.338 202.134 947.338C194.278 947.338 187.608 949.784 182.123 954.675C176.787 959.418 174.119 965.273 174.119 972.24V1041.83H146.994V886.417H174.119V942.447C177.677 936.962 182.642 932.589 189.016 929.328C195.39 925.919 202.356 924.215 209.916 924.215ZM380.669 926.883V1041.83H353.321V1026.71C349.764 1032.2 344.798 1036.57 338.425 1039.83C332.199 1042.94 325.307 1044.5 317.747 1044.5C309.446 1044.5 302.035 1042.65 295.513 1038.94C289.139 1035.09 284.1 1029.83 280.394 1023.16C276.837 1016.34 275.058 1008.63 275.058 1000.03V926.883H301.294V994.696C301.294 1002.55 303.517 1009 307.964 1014.04C312.559 1018.93 318.414 1021.38 325.529 1021.38C333.385 1021.38 339.981 1019.01 345.317 1014.26C350.653 1009.37 353.321 1003.44 353.321 996.475V926.883H380.669ZM469.627 924.215C477.928 924.215 485.339 926.142 491.861 929.996C498.383 933.701 503.423 938.963 506.98 945.782C510.686 952.452 512.539 960.085 512.539 968.683V1041.83H486.081V974.019C486.081 966.163 483.783 959.789 479.188 954.898C474.741 949.858 468.96 947.338 461.846 947.338C453.99 947.338 447.393 949.784 442.057 954.675C436.721 959.418 434.053 965.273 434.053 972.24V1041.83H406.928V926.883H434.053V942.002C437.611 936.517 442.502 932.219 448.728 929.106C455.101 925.845 462.068 924.215 469.627 924.215ZM650.857 886.417V1041.83H623.731V1023.82C619.284 1030.34 613.578 1035.46 606.611 1039.16C599.793 1042.72 592.233 1044.5 583.932 1044.5C573.853 1044.5 564.811 1041.98 556.807 1036.94C548.803 1031.75 542.503 1024.56 537.908 1015.37C533.313 1006.18 531.016 995.808 531.016 984.246C531.016 972.685 533.313 962.383 537.908 953.341C542.503 944.151 548.803 937.036 556.807 931.997C564.811 926.809 573.853 924.215 583.932 924.215C592.233 924.215 599.793 926.068 606.611 929.773C613.578 933.331 619.284 938.37 623.731 944.892V886.417H650.857ZM591.27 1021.38C597.495 1021.38 603.054 1019.82 607.945 1016.71C612.985 1013.45 616.839 1009 619.507 1003.37C622.323 997.735 623.731 991.361 623.731 984.246C623.731 973.426 620.693 964.606 614.615 957.788C608.538 950.821 600.756 947.338 591.27 947.338C581.487 947.338 573.483 950.821 567.257 957.788C561.032 964.606 557.919 973.426 557.919 984.246C557.919 995.067 561.032 1003.96 567.257 1010.93C573.483 1017.89 581.487 1021.38 591.27 1021.38ZM731.535 1022.71C737.464 1022.71 743.319 1021.6 749.099 1019.38C755.029 1017.15 759.846 1014.26 763.552 1010.7L779.115 1026.71C774.224 1031.9 767.331 1036.2 758.438 1039.61C749.544 1042.87 740.873 1044.5 732.424 1044.5C721.455 1044.5 711.376 1041.91 702.186 1036.72C692.996 1031.53 685.659 1024.34 680.174 1015.15C674.838 1005.96 672.17 995.586 672.17 984.024C672.17 972.611 674.764 962.383 679.952 953.341C685.14 944.299 692.181 937.184 701.074 931.997C710.116 926.809 720.047 924.215 730.868 924.215C748.507 924.215 762.292 930.292 772.223 942.447C782.302 954.601 787.342 971.202 787.342 992.251H698.406C699.888 1001.44 703.594 1008.85 709.523 1014.48C715.452 1019.97 722.789 1022.71 731.535 1022.71ZM731.312 946.004C723.16 946.004 716.119 948.598 710.19 953.786C704.261 958.826 700.407 965.644 698.628 974.241H761.106C759.772 965.792 756.511 958.974 751.323 953.786C746.283 948.598 739.613 946.004 731.312 946.004ZM833.865 948.672C837.57 941.112 843.055 935.183 850.318 930.885C857.581 926.438 865.807 924.215 874.997 924.215V947.338C862.695 947.338 852.763 950.673 845.204 957.343C837.644 964.013 833.865 972.833 833.865 983.802V1041.83H806.739V926.883H833.865V948.672ZM961.864 924.215C971.944 924.215 980.986 926.809 988.99 931.997C996.994 937.036 1003.29 944.151 1007.89 953.341C1012.48 962.383 1014.78 972.685 1014.78 984.246C1014.78 995.808 1012.48 1006.18 1007.89 1015.37C1003.29 1024.56 996.994 1031.75 988.99 1036.94C980.986 1041.98 971.944 1044.5 961.864 1044.5C953.564 1044.5 945.93 1042.72 938.963 1039.16C932.145 1035.46 926.512 1030.34 922.066 1023.82V1041.83H894.94V886.417H922.066V944.892C926.512 938.37 932.145 933.331 938.963 929.773C945.93 926.068 953.564 924.215 961.864 924.215ZM954.527 1021.38C964.31 1021.38 972.314 1017.89 978.54 1010.93C984.765 1003.96 987.878 995.067 987.878 984.246C987.878 973.426 984.765 964.606 978.54 957.788C972.314 950.821 964.31 947.338 954.527 947.338C945.041 947.338 937.259 950.821 931.182 957.788C925.104 964.606 922.066 973.426 922.066 984.246C922.066 991.361 923.4 997.735 926.068 1003.37C928.884 1009 932.738 1013.45 937.629 1016.71C942.669 1019.82 948.302 1021.38 954.527 1021.38ZM1035.21 926.883H1062.34V1041.83H1035.21V926.883ZM1048.77 909.54C1044.47 909.54 1040.77 907.984 1037.66 904.871C1034.69 901.758 1033.21 898.127 1033.21 893.977C1033.21 889.826 1034.69 886.269 1037.66 883.304C1040.77 880.191 1044.47 878.635 1048.77 878.635C1052.92 878.635 1056.48 880.191 1059.45 883.304C1062.41 886.269 1063.89 889.826 1063.89 893.977C1063.89 898.127 1062.41 901.758 1059.45 904.871C1056.48 907.984 1052.92 909.54 1048.77 909.54ZM1115.78 948.672C1119.48 941.112 1124.97 935.183 1132.23 930.885C1139.49 926.438 1147.72 924.215 1156.91 924.215V947.338C1144.61 947.338 1134.67 950.673 1127.11 957.343C1119.56 964.013 1115.78 972.833 1115.78 983.802V1041.83H1088.65V926.883H1115.78V948.672ZM1285.24 886.417V1041.83H1258.12V1023.82C1253.67 1030.34 1247.97 1035.46 1241 1039.16C1234.18 1042.72 1226.62 1044.5 1218.32 1044.5C1208.24 1044.5 1199.2 1041.98 1191.2 1036.94C1183.19 1031.75 1176.89 1024.56 1172.3 1015.37C1167.7 1006.18 1165.4 995.808 1165.4 984.246C1165.4 972.685 1167.7 962.383 1172.3 953.341C1176.89 944.151 1183.19 937.036 1191.2 931.997C1199.2 926.809 1208.24 924.215 1218.32 924.215C1226.62 924.215 1234.18 926.068 1241 929.773C1247.97 933.331 1253.67 938.37 1258.12 944.892V886.417H1285.24ZM1225.66 1021.38C1231.88 1021.38 1237.44 1019.82 1242.33 1016.71C1247.37 1013.45 1251.23 1009 1253.9 1003.37C1256.71 997.735 1258.12 991.361 1258.12 984.246C1258.12 973.426 1255.08 964.606 1249 957.788C1242.93 950.821 1235.14 947.338 1225.66 947.338C1215.88 947.338 1207.87 950.821 1201.65 957.788C1195.42 964.606 1192.31 973.426 1192.31 984.246C1192.31 995.067 1195.42 1003.96 1201.65 1010.93C1207.87 1017.89 1215.88 1021.38 1225.66 1021.38Z" fill="#2A284B"/>
<path d="M1314.82 920.339C1316.8 920.339 1318.63 920.837 1320.32 921.833C1322.03 922.829 1323.38 924.188 1324.38 925.909C1325.4 927.599 1325.91 929.441 1325.91 931.433C1325.91 933.426 1325.4 935.282 1324.38 937.003C1323.38 938.694 1322.03 940.052 1320.32 941.078C1318.63 942.075 1316.8 942.573 1314.82 942.573C1312.8 942.573 1310.94 942.075 1309.22 941.078C1307.54 940.052 1306.19 938.694 1305.16 937.003C1304.17 935.282 1303.68 933.426 1303.68 931.433C1303.68 929.441 1304.17 927.599 1305.16 925.909C1306.19 924.188 1307.54 922.829 1309.22 921.833C1310.94 920.837 1312.8 920.339 1314.82 920.339ZM1314.82 940.943C1316.53 940.943 1318.11 940.52 1319.55 939.675C1321.02 938.829 1322.18 937.682 1323.02 936.233C1323.87 934.754 1324.29 933.154 1324.29 931.433C1324.29 929.712 1323.85 928.128 1322.98 926.678C1322.14 925.229 1320.99 924.082 1319.55 923.237C1318.11 922.392 1316.53 921.969 1314.82 921.969C1313.1 921.969 1311.51 922.392 1310.04 923.237C1308.59 924.082 1307.43 925.229 1306.56 926.678C1305.72 928.128 1305.3 929.712 1305.3 931.433C1305.3 933.154 1305.72 934.739 1306.56 936.188C1307.43 937.637 1308.59 938.799 1310.04 939.675C1311.51 940.52 1313.1 940.943 1314.82 940.943ZM1320.81 929.395C1320.81 930.422 1320.54 931.328 1320 932.112C1319.49 932.867 1318.78 933.411 1317.88 933.743L1321.04 938.271H1317.66L1314.77 934.15H1312.7V938.271H1309.31V924.686H1315.67C1317.21 924.686 1318.44 925.124 1319.37 925.999C1320.33 926.845 1320.81 927.977 1320.81 929.395ZM1312.7 930.799H1315.31C1315.88 930.799 1316.35 930.678 1316.71 930.437C1317.07 930.165 1317.25 929.818 1317.25 929.395C1317.25 929.003 1317.07 928.686 1316.71 928.445C1316.35 928.173 1315.88 928.037 1315.31 928.037H1312.7V930.799Z" fill="#2A284B"/>
</g>
<path fill-rule="evenodd" clip-rule="evenodd" d="M587.864 137.454H587.796H587.705C531.705 160.454 525.704 211.864 534.704 239.52C534.704 239.52 534.705 239.728 534.69 240.106C567.109 217.306 608.565 205.019 647.702 205.019C742.767 205.019 819.833 267.901 819.833 345.47C819.833 423.039 742.767 485.921 647.702 485.921C646.968 485.921 646.153 485.89 645.291 485.858C640.773 485.69 634.953 485.474 632.595 489.315C629.786 493.889 635.979 500.923 639.545 504.958C676.708 546.998 730.613 552.281 744.77 553.669C745.68 553.758 746.426 553.831 746.993 553.897C622.115 565.974 475.617 486.196 475.571 347.52C475.56 314.832 487.636 287.05 506.914 264.937C506.868 264.931 506.822 264.924 506.775 264.918C506.743 264.913 506.711 264.909 506.679 264.904C510.922 193.944 483.676 109.087 432.711 92.4007C429.105 91.2197 425.532 93.9317 425.082 97.6997C418.38 153.829 403.867 173.284 388.212 194.272C364.724 225.759 347.656 262.151 348.4 302.116C339.876 284.276 332.965 265.651 327.836 246.393C327.141 243.783 322.848 235.768 318.125 238.456C314.352 240.604 311.51 246.476 309.478 252.598C301.712 281.746 297.704 312.844 297.704 342.953C297.704 533.6 457.384 692.954 647.705 692.954C841.005 692.954 997.705 536.253 997.705 342.954C997.705 269.254 974.926 200.875 936.024 144.473C937.645 144.443 939.27 144.428 940.899 144.428C956.006 144.428 970.741 145.72 984.947 148.175C963.533 124.381 934.644 105.148 901.018 92.6557C923.467 84.5147 947.993 79.4697 973.773 78.1927C932.158 44.2057 871.439 22.7887 803.819 22.7887C705.946 22.7887 609.904 60.4047 587.864 137.454ZM607.75 404.805C582.399 378.42 506.474 290.778 506.474 290.778L512.351 291.03L631.205 379.805C640.11 386.273 652.802 386.208 661.626 379.649L778.173 291.145L784.361 290.664C784.361 290.664 710.918 376.23 682.789 404.421C654.659 432.612 633.1 431.189 607.75 404.805ZM688.661 110.73C688.661 110.73 690.273 128.966 671.853 134.767C650.797 141.398 641.464 123.686 641.464 123.686C641.464 123.686 644.111 111.523 661.195 105.897C679.444 99.8867 688.661 110.73 688.661 110.73Z" fill="#2A284B"/>
</g>
<defs>
<clipPath id="clip0_1_106">
<rect width="1325.27" height="1056" fill="white"/>
</clipPath>
<clipPath id="clip1_1_106">
<rect width="1328" height="260" fill="white" transform="translate(-2 827)"/>
</clipPath>
</defs>
</svg>
