<svg width="1502" height="296" viewBox="0 0 1502 296" fill="none" xmlns="http://www.w3.org/2000/svg">
<g clip-path="url(#clip0_1_330)">
<path d="M64.459 98.4336H9.45898V69.9336H150.459V98.4336H95.709V241.684H64.459V98.4336ZM247.127 109.434C256.46 109.434 264.71 111.6 271.877 115.934C279.21 120.1 284.877 126.017 288.877 133.684C293.044 141.184 295.127 149.767 295.127 159.434V241.684H265.377V165.434C265.377 156.6 262.877 149.434 257.877 143.934C252.877 138.267 246.377 135.434 238.377 135.434C229.544 135.434 222.044 138.184 215.877 143.684C209.877 149.017 206.877 155.6 206.877 163.434V241.684H176.377V66.9336H206.877V129.934C210.877 123.767 216.46 118.85 223.627 115.184C230.794 111.35 238.627 109.434 247.127 109.434ZM439.123 112.434V241.684H408.373V224.684C404.373 230.85 398.79 235.767 391.623 239.434C384.623 242.934 376.873 244.684 368.373 244.684C359.04 244.684 350.706 242.6 343.373 238.434C336.206 234.1 330.54 228.184 326.373 220.684C322.373 213.017 320.373 204.35 320.373 194.684V112.434H349.873V188.684C349.873 197.517 352.373 204.767 357.373 210.434C362.54 215.934 369.123 218.684 377.123 218.684C385.956 218.684 393.373 216.017 399.373 210.684C405.373 205.184 408.373 198.517 408.373 190.684V112.434H439.123ZM539.148 109.434C548.482 109.434 556.815 111.6 564.148 115.934C571.482 120.1 577.148 126.017 581.148 133.684C585.315 141.184 587.398 149.767 587.398 159.434V241.684H557.648V165.434C557.648 156.6 555.065 149.434 549.898 143.934C544.898 138.267 538.398 135.434 530.398 135.434C521.565 135.434 514.148 138.184 508.148 143.684C502.148 149.017 499.148 155.6 499.148 163.434V241.684H468.648V112.434H499.148V129.434C503.148 123.267 508.648 118.434 515.648 114.934C522.815 111.267 530.648 109.434 539.148 109.434ZM742.924 66.9336V241.684H712.424V221.434C707.424 228.767 701.007 234.517 693.174 238.684C685.507 242.684 677.007 244.684 667.674 244.684C656.34 244.684 646.174 241.85 637.174 236.184C628.174 230.35 621.09 222.267 615.924 211.934C610.757 201.6 608.174 189.934 608.174 176.934C608.174 163.934 610.757 152.35 615.924 142.184C621.09 131.85 628.174 123.85 637.174 118.184C646.174 112.35 656.34 109.434 667.674 109.434C677.007 109.434 685.507 111.517 693.174 115.684C701.007 119.684 707.424 125.35 712.424 132.684V66.9336H742.924ZM675.924 218.684C682.924 218.684 689.174 216.934 694.674 213.434C700.34 209.767 704.674 204.767 707.674 198.434C710.84 192.1 712.424 184.934 712.424 176.934C712.424 164.767 709.007 154.85 702.174 147.184C695.34 139.35 686.591 135.434 675.924 135.434C664.924 135.434 655.924 139.35 648.924 147.184C641.924 154.85 638.424 164.767 638.424 176.934C638.424 189.1 641.924 199.1 648.924 206.934C655.924 214.767 664.924 218.684 675.924 218.684ZM833.639 220.184C840.305 220.184 846.889 218.934 853.389 216.434C860.055 213.934 865.472 210.684 869.639 206.684L887.139 224.684C881.639 230.517 873.889 235.35 863.889 239.184C853.889 242.85 844.139 244.684 834.639 244.684C822.305 244.684 810.972 241.767 800.639 235.934C790.305 230.1 782.055 222.017 775.889 211.684C769.889 201.35 766.889 189.684 766.889 176.684C766.889 163.85 769.805 152.35 775.639 142.184C781.472 132.017 789.389 124.017 799.389 118.184C809.555 112.35 820.722 109.434 832.889 109.434C852.722 109.434 868.222 116.267 879.389 129.934C890.722 143.6 896.389 162.267 896.389 185.934H796.389C798.055 196.267 802.222 204.6 808.889 210.934C815.555 217.1 823.805 220.184 833.639 220.184ZM833.389 133.934C824.222 133.934 816.305 136.85 809.639 142.684C802.972 148.35 798.639 156.017 796.639 165.684H866.889C865.389 156.184 861.722 148.517 855.889 142.684C850.222 136.85 842.722 133.934 833.389 133.934ZM948.699 136.934C952.866 128.434 959.033 121.767 967.199 116.934C975.366 111.934 984.616 109.434 994.949 109.434V135.434C981.116 135.434 969.949 139.184 961.449 146.684C952.949 154.184 948.699 164.1 948.699 176.434V241.684H918.199V112.434H948.699V136.934ZM1092.62 109.434C1103.96 109.434 1114.12 112.35 1123.12 118.184C1132.12 123.85 1139.21 131.85 1144.37 142.184C1149.54 152.35 1152.12 163.934 1152.12 176.934C1152.12 189.934 1149.54 201.6 1144.37 211.934C1139.21 222.267 1132.12 230.35 1123.12 236.184C1114.12 241.85 1103.96 244.684 1092.62 244.684C1083.29 244.684 1074.71 242.684 1066.87 238.684C1059.21 234.517 1052.87 228.767 1047.87 221.434V241.684H1017.37V66.9336H1047.87V132.684C1052.87 125.35 1059.21 119.684 1066.87 115.684C1074.71 111.517 1083.29 109.434 1092.62 109.434ZM1084.37 218.684C1095.37 218.684 1104.37 214.767 1111.37 206.934C1118.37 199.1 1121.87 189.1 1121.87 176.934C1121.87 164.767 1118.37 154.85 1111.37 147.184C1104.37 139.35 1095.37 135.434 1084.37 135.434C1073.71 135.434 1064.96 139.35 1058.12 147.184C1051.29 154.85 1047.87 164.767 1047.87 176.934C1047.87 184.934 1049.37 192.1 1052.37 198.434C1055.54 204.767 1059.87 209.767 1065.37 213.434C1071.04 216.934 1077.37 218.684 1084.37 218.684ZM1175.09 112.434H1205.59V241.684H1175.09V112.434ZM1190.34 92.9336C1185.51 92.9336 1181.34 91.1836 1177.84 87.6836C1174.51 84.1836 1172.84 80.1003 1172.84 75.4336C1172.84 70.7669 1174.51 66.7669 1177.84 63.4336C1181.34 59.9336 1185.51 58.1836 1190.34 58.1836C1195.01 58.1836 1199.01 59.9336 1202.34 63.4336C1205.68 66.7669 1207.34 70.7669 1207.34 75.4336C1207.34 80.1003 1205.68 84.1836 1202.34 87.6836C1199.01 91.1836 1195.01 92.9336 1190.34 92.9336ZM1265.68 136.934C1269.85 128.434 1276.01 121.767 1284.18 116.934C1292.35 111.934 1301.6 109.434 1311.93 109.434V135.434C1298.1 135.434 1286.93 139.184 1278.43 146.684C1269.93 154.184 1265.68 164.1 1265.68 176.434V241.684H1235.18V112.434H1265.68V136.934ZM1456.23 66.9336V241.684H1425.73V221.434C1420.73 228.767 1414.32 234.517 1406.48 238.684C1398.82 242.684 1390.32 244.684 1380.98 244.684C1369.65 244.684 1359.48 241.85 1350.48 236.184C1341.48 230.35 1334.4 222.267 1329.23 211.934C1324.07 201.6 1321.48 189.934 1321.48 176.934C1321.48 163.934 1324.07 152.35 1329.23 142.184C1334.4 131.85 1341.48 123.85 1350.48 118.184C1359.48 112.35 1369.65 109.434 1380.98 109.434C1390.32 109.434 1398.82 111.517 1406.48 115.684C1414.32 119.684 1420.73 125.35 1425.73 132.684V66.9336H1456.23ZM1389.23 218.684C1396.23 218.684 1402.48 216.934 1407.98 213.434C1413.65 209.767 1417.98 204.767 1420.98 198.434C1424.15 192.1 1425.73 184.934 1425.73 176.934C1425.73 164.767 1422.32 154.85 1415.48 147.184C1408.65 139.35 1399.9 135.434 1389.23 135.434C1378.23 135.434 1369.23 139.35 1362.23 147.184C1355.23 154.85 1351.73 164.767 1351.73 176.934C1351.73 189.1 1355.23 199.1 1362.23 206.934C1369.23 214.767 1378.23 218.684 1389.23 218.684Z" fill="#2A284B"/>
<path d="M1489.48 105.096C1491.72 105.096 1493.78 105.656 1495.67 106.776C1497.6 107.896 1499.12 109.424 1500.23 111.358C1501.38 113.259 1501.96 115.33 1501.96 117.57C1501.96 119.811 1501.38 121.898 1500.23 123.833C1499.12 125.734 1497.6 127.261 1495.67 128.415C1493.78 129.536 1491.72 130.096 1489.48 130.096C1487.22 130.096 1485.12 129.536 1483.2 128.415C1481.3 127.261 1479.78 125.734 1478.63 123.833C1477.52 121.898 1476.96 119.811 1476.96 117.57C1476.96 115.33 1477.52 113.259 1478.63 111.358C1479.78 109.424 1481.3 107.896 1483.2 106.776C1485.12 105.656 1487.22 105.096 1489.48 105.096ZM1489.48 128.263C1491.41 128.263 1493.19 127.787 1494.81 126.837C1496.47 125.887 1497.77 124.597 1498.71 122.967C1499.66 121.304 1500.13 119.505 1500.13 117.57C1500.13 115.635 1499.64 113.853 1498.66 112.224C1497.72 110.595 1496.43 109.305 1494.81 108.354C1493.19 107.404 1491.41 106.929 1489.48 106.929C1487.56 106.929 1485.77 107.404 1484.11 108.354C1482.49 109.305 1481.18 110.595 1480.2 112.224C1479.26 113.853 1478.78 115.635 1478.78 117.57C1478.78 119.505 1479.26 121.287 1480.2 122.916C1481.18 124.546 1482.49 125.853 1484.11 126.837C1485.77 127.787 1487.56 128.263 1489.48 128.263ZM1496.23 115.279C1496.23 116.433 1495.92 117.451 1495.32 118.334C1494.74 119.183 1493.95 119.794 1492.93 120.167L1496.48 125.259H1492.68L1489.43 120.625H1487.1V125.259H1483.3V109.984H1490.45C1492.17 109.984 1493.56 110.476 1494.61 111.46C1495.69 112.411 1496.23 113.684 1496.23 115.279ZM1487.1 116.857H1490.04C1490.68 116.857 1491.21 116.722 1491.61 116.45C1492.02 116.145 1492.22 115.754 1492.22 115.279C1492.22 114.838 1492.02 114.481 1491.61 114.21C1491.21 113.904 1490.68 113.752 1490.04 113.752H1487.1V116.857Z" fill="#2A284B"/>
</g>
<defs>
<clipPath id="clip0_1_330">
<rect width="1502" height="292.5" fill="white"/>
</clipPath>
</defs>
</svg>
